<?xml version="1.0" encoding="UTF-8"?>
<svg id="Layer_1" xmlns="http://www.w3.org/2000/svg" version="1.1" viewBox="0 0 500 500">
  <!-- Generator: Adobe Illustrator 29.0.1, SVG Export Plug-In . SVG Version: 2.1.0 Build 192)  -->
  <defs>
    <style>
      .st0 {
        fill: #231f20;
      }
    </style>
  </defs>
  <path class="st0" d="M402.47,77.79H97.53c-34.92,0-63.23,28.31-63.23,63.23v159.21c0,34.92,28.31,63.23,63.23,63.23h83.55l51.57,51.57c9.58,9.58,25.12,9.58,34.71,0l51.57-51.57h83.55c34.92,0,63.23-28.31,63.23-63.23v-159.21c0-34.92-28.31-63.23-63.23-63.23ZM183.21,244.99c-13.46,0-24.37-10.91-24.37-24.37s10.91-24.37,24.37-24.37,24.37,10.91,24.37,24.37-10.91,24.37-24.37,24.37ZM250,244.99c-13.46,0-24.37-10.91-24.37-24.37s10.91-24.37,24.37-24.37,24.37,10.91,24.37,24.37-10.91,24.37-24.37,24.37ZM316.79,244.99c-13.46,0-24.37-10.91-24.37-24.37s10.91-24.37,24.37-24.37,24.37,10.91,24.37,24.37-10.91,24.37-24.37,24.37Z"/>
</svg>